<?xml version="1.0" encoding="UTF-8" standalone="no"?>
<svg
   xmlns:dc="http://purl.org/dc/elements/1.1/"
   xmlns:cc="http://creativecommons.org/ns#"
   xmlns:rdf="http://www.w3.org/1999/02/22-rdf-syntax-ns#"
   xmlns:svg="http://www.w3.org/2000/svg"
   xmlns="http://www.w3.org/2000/svg"
   viewBox="0 0 5651.7466 5877.48"
   height="5877.48"
   width="5651.7466"
   xml:space="preserve"
   id="svg2"
   version="1.1"><metadata
     id="metadata8"><rdf:RDF><cc:Work
         rdf:about=""><dc:format>image/svg+xml</dc:format><dc:type
           rdf:resource="http://purl.org/dc/dcmitype/StillImage" /></cc:Work></rdf:RDF></metadata><defs
     id="defs6" /><g
     transform="matrix(1.3333333,0,0,-1.3333333,0,5877.48)"
     id="g10"><g
       transform="scale(0.1)"
       id="g12"><g
         transform="scale(2.70436)"
         id="g14"><path
           id="path16"
           style="fill:#a9c6c4;fill-opacity:1;fill-rule:nonzero;stroke:none"
           d="M 15674,0.924435 H 0 V 16300 H 15674 V 0.924435" /></g><g
         transform="scale(1.05041)"
         id="g18"><path
           id="path20"
           style="fill:#f25425;fill-opacity:1;fill-rule:nonzero;stroke:none"
           d="m 10823.7,13314.5 c 646.9,-843.8 1091.3,-1857.7 1279.7,-2847.9 411.6,-2162.19 -69.8,-5263.47 3193.3,-6374.09 1003.3,-341.48 -86.9,-2527.31 -86.9,-2527.31 0,0 -5751.37,1425.17 -7704.96,2412.22 -2002.12,1011.51 -3493.73,3588.14 -3592.75,5804.61 882.09,-246.95 1836.97,-291.5 2792.7,-88.82 2020.41,428.49 3534.61,1853.19 4118.91,3621.29" /></g><g
         transform="scale(1.01698)"
         id="g22"><path
           id="path24"
           style="fill:#e6ddd1;fill-opacity:1;fill-rule:nonzero;stroke:none"
           d="m 1889.61,14161.4 v 0 l 1549.97,960.6 c 1774.06,1099.4 4038.55,1178 5912.14,205.1 v 0 c 712.38,-369.8 1328.28,-923.5 1827.78,-1575 C 10576,11926 9012.01,10454.4 6925.19,10011.8 c -987.15,-209.3 -1973.42,-163.28 -2884.5,91.8 -6.25,139.7 -7.78,278.3 -3.08,414.7 51.51,1500.3 -779.24,2909.3 -2148,3643.1" /></g><g
         transform="scale(1.95715)"
         id="g26"><path
           id="path28"
           style="fill:#f25425;fill-opacity:1;fill-rule:nonzero;stroke:none"
           d="m 15391.2,4372.94 c 0,-824.51 908.8,-4370.028 0.8,-4371.66263 -1554.9,-2.914 -2393.8,-0.05389 -3771.6,-0.05389 -1295.4,0 -2022.91,0 -3428.17,0.05389 -992.87,0 -342.39,3450.78263 -342.39,4371.66263 0,2436.66 1688.18,4411.94 3770.66,4411.94 2082.5,0 3770.7,-1975.28 3770.7,-4411.94" /></g><g
         transform="scale(1.75075)"
         id="g30"><path
           id="path32"
           style="fill:#f3d4b0;fill-opacity:1;fill-rule:nonzero;stroke:none"
           d="m 15645.2,3885.24 c 0,-734.26 654.8,-3883.81204 -1.4,-3883.81204 -1123.6,0 -1742.5,0 -2738.2,0 -936.2,0 -1443.9,6.56636 -2464.9,0 -717.69,-4.68548 -245.5,3063.76204 -245.5,3883.81204 0,2169.81 1220,3928.76 2725,3928.76 1505,0 2725,-1758.95 2725,-3928.76" /></g><g
         transform="scale(2.51474)"
         id="g34"><path
           id="path36"
           style="fill:#3e2736;fill-opacity:1;fill-rule:nonzero;stroke:none"
           d="m 4925.37,10756 c 0,0 -1152.08,2521.6 -238.64,5544 0,0 2758.46,-1990.4 3545.86,-3902 72.01,-174.8 -3307.22,-1642 -3307.22,-1642" /></g><g
         transform="scale(2.20593)"
         id="g38"><path
           id="path40"
           style="fill:#f2e4cf;fill-opacity:1;fill-rule:nonzero;stroke:none"
           d="m 6179.51,12080.5 c 0,0 -882.25,1380.9 -24.38,4219.5 0,0 2390.96,-973.8 3130.51,-2769.1 67.59,-164.2 -3106.13,-1450.4 -3106.13,-1450.4" /></g><g
         transform="scale(2.51474)"
         id="g42"><path
           id="path44"
           style="fill:#3e2736;fill-opacity:1;fill-rule:nonzero;stroke:none"
           d="m 13162.4,10756 c 0,0 1152.1,2521.6 238.7,5544 0,0 -2758.5,-1990.4 -3545.88,-3902 -72.01,-174.8 3307.18,-1642 3307.18,-1642" /></g><g
         transform="scale(2.20593)"
         id="g46"><path
           id="path48"
           style="fill:#f2e4cf;fill-opacity:1;fill-rule:nonzero;stroke:none"
           d="m 14196.8,12080.5 c 0,0 882.2,1380.9 24.3,4219.5 0,0 -2390.9,-973.7 -3130.5,-2769.1 -67.6,-164.2 3106.2,-1450.4 3106.2,-1450.4" /></g><g
         transform="scale(2.2186)"
         id="g50"><path
           id="path52"
           style="fill:#f25425;fill-opacity:1;fill-rule:nonzero;stroke:none"
           d="m 15411.5,12062.2 c -244.7,754.3 -639.2,1399.2 -1149.5,1919.7 -639.5,652.4 -1460.9,1109.2 -2398.5,1338.9 -98.5,24.2 -248.6,46.8 -418.2,67.1 -793.6,95 -1594.86,95 -2388.42,0 -169.66,-20.3 -319.66,-42.9 -418.19,-67.1 -937.67,-229.7 -1759.04,-686.5 -2398.59,-1338.9 -510.18,-520.5 -904.76,-1165.4 -1149.46,-1919.7 -358.92,-1106.2 -298.7,-2428.92 -888.47,-2946.05 1823.11,606.01 3246.17,423.37 5069.17,-183.04 l 479.76,-382.9 c 96.23,-344.37 253.4,-673.85 470.1,-971.34 v 0 l 29.9,-41.06 29.9,41.06 c 216.6,297.49 373.8,626.97 470.1,971.34 l 479.7,382.9 c 1823,606.41 3246.1,789.05 5069.2,183.04 -589.8,517.13 -529.6,1839.85 -888.5,2946.05" /></g><g
         transform="scale(1.39528)"
         id="g54"><path
           id="path56"
           style="fill:#e6ddd1;fill-opacity:1;fill-rule:nonzero;stroke:none"
           d="m 6681.79,14495.4 v 0 c 0,0 6366.41,-3955.8 9618.21,-4000.8 V 12961 l -540.5,683 c -832.4,1051.8 -2117.3,1658.7 -3457.1,1593.3 -2167.7,-105.7 -3520.48,-43.8 -5620.61,-741.9" /></g><g
         transform="scale(2.2186)"
         id="g58"><path
           id="path60"
           style="fill:#e6ddd1;fill-opacity:1;fill-rule:nonzero;stroke:none"
           d="m 16300,9116.15 c -1320.8,439.01 -2171.5,400.11 -3534.8,466.6 -842.6,41.11 -1650.7,-340.58 -2174.2,-1002.07 l -339.9,-429.51 V 6600.01 c 2045.1,28.31 6048.9,2516.14 6048.9,2516.14 v 0" /></g><g
         transform="scale(1.90362)"
         id="g62"><path
           id="path64"
           style="fill:#3e2736;fill-opacity:1;fill-rule:nonzero;stroke:none"
           d="m 14330.9,12725.2 c 0,-543.8 440.8,-984.6 984.6,-984.6 543.7,0 984.5,440.8 984.5,984.6 0,543.7 -440.8,984.5 -984.5,984.5 -543.8,0 -984.6,-440.8 -984.6,-984.5" /></g><g
         transform="scale(1.60111)"
         id="g66"><path
           id="path68"
           style="fill:#3e2736;fill-opacity:1;fill-rule:nonzero;stroke:none"
           d="m 11549.7,15129.4 c 0,-646.5 -524.1,-1170.6 -1170.6,-1170.6 -646.48,0 -1170.55,524.1 -1170.55,1170.6 0,646.5 524.07,1170.6 1170.55,1170.6 646.5,0 1170.6,-524.1 1170.6,-1170.6" /></g><g
         transform="scale(1.50807)"
         id="g70"><path
           id="path72"
           style="fill:#3e2736;fill-opacity:1;fill-rule:nonzero;stroke:none"
           d="m 15300.8,11570.7 823.7,898.3 c 175.5,191.4 39.7,500 -219.9,500 h -1647.3 c -259.7,0 -395.4,-308.6 -219.9,-500 l 823.6,-898.3 c 118.2,-129 321.6,-129 439.8,0" /></g><g
         transform="scale(1.84583)"
         id="g74"><path
           id="path76"
           style="fill:#ffffff;fill-opacity:1;fill-rule:nonzero;stroke:none"
           d="m 16300,12746.3 c 0,-352.4 -262.3,-638.2 -585.9,-638.2 -323.6,0 -585.9,285.8 -585.9,638.2 0,352.4 262.3,638.1 585.9,638.1 323.6,0 585.9,-285.7 585.9,-638.1" /></g><g
         transform="scale(1.51567)"
         id="g78"><path
           id="path80"
           style="fill:#ffffff;fill-opacity:1;fill-rule:nonzero;stroke:none"
           d="m 11776.1,15522.8 c 0,-429.1 -319.4,-777.1 -713.5,-777.1 -394.1,0 -713.6,348 -713.6,777.1 0,429.3 319.5,777.2 713.6,777.2 394.1,0 713.5,-347.9 713.5,-777.2" /></g><g
         transform="scale(2.11244)"
         id="g82"><path
           id="path84"
           style="fill:#3e2736;fill-opacity:1;fill-rule:nonzero;stroke:none"
           d="m 15799.4,11322.9 c 27.1,-650.5 -205.9,-924 -358,-1167.8 -331.5,-435.85 -1257,-592.58 -1720.6,-610.29 -645.4,-19.88 -1001.6,211.42 -1302.9,430.41 -610.2,430.28 -773.3,1302.68 -845.8,1572.08 -72.5,269.5 80.9,483 254.6,636.8 173.3,153.8 854.1,403.5 1571.9,579.4 717.5,175.8 1444.9,177.3 1703.4,138.2 258.1,-39 503.3,-291.5 503.3,-291.5 139.7,-120 167.1,-636.7 194.1,-1287.3 z m -5907.88,132.9 C 9848.68,11180.1 9781.03,10295.1 9221.16,9801.15 8945.5,9550.78 8616.59,9282.17 7972.93,9231.86 7509.96,9199.1 6573.08,9254.44 6196.02,9651.75 6018.46,9877.6 5757,10124.1 5713.4,10773.7 c -43.64,649.8 -72.52,1166.4 53.12,1300.8 0,0 216.43,277.6 468.94,344.5 252.64,66.9 975.6,144.4 1708.26,47.5 732.71,-96.8 1436.35,-271.2 1625.57,-405.3 189.07,-134.1 364.98,-329.6 322.23,-605.4 z m 6301.78,1892.8 c 0,0 -232.7,25.3 -2598.2,-247.8 -1982.7,-228.9 -2740.6,-287.1 -2934.1,-299.9 -193.7,-8.3 -953.53,-32.7 -2949.29,-20.4 -2381.09,14.7 -2609.68,-35.7 -2609.68,-35.7 0,0 -25.19,-753.5 47,-863.4 72.05,-110.2 160.29,-971.4 226.19,-1271.7 65.94,-300.2 203.98,-862.37 576.02,-1168.8 372.12,-306.37 944.12,-487.97 1565.34,-514.9 850.87,8.28 1112.23,66.23 1717.88,441.15 605.75,374.69 953.04,1432.55 1008.74,1625.45 55.7,192.9 134,497.3 194.4,603.1 50.9,85.9 150.7,115.9 228.2,125.6 l 0.2,-2.9 c 0,0 21.2,4.3 53.6,6.9 32.5,0.9 53.9,-1.1 53.9,-1.1 l -0.1,2.9 c 78.2,-1.2 180.5,-20.2 240.6,-100 71.5,-98.7 182.4,-392.7 258.8,-578.4 76.2,-185.8 536.3,-1199.69 1179.3,-1506.4 642.6,-306.94 908.7,-336.15 1755.4,-252.03 614.6,94.25 1163.6,336.82 1500.1,681.82 336.7,345.01 413,918.91 445.8,1224.51 32.9,305.6 27.2,1171.4 86.9,1288.6 59.7,117.1 -47,863.4 -47,863.4" /></g><g
         transform="scale(1.78792)"
         id="g86"><path
           id="path88"
           style="fill:#3e2736;fill-opacity:1;fill-rule:nonzero;stroke:none"
           d="m 14062.1,6546.43 c 7.2,1.12 14.7,1.96 22,2.85 3,-8.16 6.4,-16.16 10,-24.16 -10.8,6.66 -21.4,13.98 -32,21.31 z m 2137.8,2280.42 c -37.2,252.47 -124.1,521.61 -379.7,675.25 -263.5,158.29 -617.5,153.42 -908.3,57.61 -374.9,-123.44 -696.8,-368.87 -981.2,-605.85 -303.5,-253.14 -564.6,-530.89 -780.7,-842.37 -32.4,48.1 -74,91.34 -127.8,126.35 -116.6,75.84 -281.3,113.26 -421.6,69.63 -151.3,-39.49 -264.5,-127.91 -334.6,-239.44 -221.3,261.37 -455,514.06 -703.5,757.25 -75.2,73.83 -151.8,148.11 -231.6,220.14 -166,150.74 -345.2,291.52 -553.3,396.84 -269.1,136.07 -617.1,217 -916.81,104.36 C 9570.23,9437.33 9434.48,9172 9346.56,8927.3 9224.52,8586.57 9182.12,8231.63 9194.03,7876.52 c 10.07,-307.28 60.52,-614.73 134.69,-912.9 71.64,-288.38 170.36,-596.11 443.64,-794.28 277.44,-201.29 615.64,-179.81 935.94,-67.61 347.2,121.48 655.6,308.79 927.9,528.04 263.2,212.14 524.6,454.21 715.4,720.44 111.7,-132.33 274.8,-222.77 476.5,-185.3 158.2,29.48 267.1,112.37 335.3,219.26 288.8,-510.54 778.9,-952.34 1381.4,-1194.24 303.7,-121.65 657.7,-177.75 974.4,-55.82 296.8,114.15 440.6,365.12 520.4,622.01 206.1,661.49 260.4,1392.17 160.3,2070.73" /></g></g></g></svg>